<svg width="32" height="32" viewBox="0 0 32 32" fill="none" xmlns="http://www.w3.org/2000/svg">
<path d="M14 5.96863C14 6.49906 14.2107 7.00777 14.5858 7.38284C14.9609 7.75791 15.4696 7.96863 16 7.96863C16.5304 7.96863 17.0391 7.75791 17.4142 7.38284C17.7893 7.00777 18 6.49906 18 5.96863C18 5.43819 17.7893 4.92949 17.4142 4.55441C17.0391 4.17934 16.5304 3.96863 16 3.96863C15.4696 3.96863 14.9609 4.17934 14.5858 4.55441C14.2107 4.92949 14 5.43819 14 5.96863ZM14 15.9686C14 16.4991 14.2107 17.0078 14.5858 17.3828C14.9609 17.7579 15.4696 17.9686 16 17.9686C16.5304 17.9686 17.0391 17.7579 17.4142 17.3828C17.7893 17.0078 18 16.4991 18 15.9686C18 15.4382 17.7893 14.9295 17.4142 14.5544C17.0391 14.1793 16.5304 13.9686 16 13.9686C15.4696 13.9686 14.9609 14.1793 14.5858 14.5544C14.2107 14.9295 14 15.4382 14 15.9686ZM14 25.9686C14 26.4991 14.2107 27.0078 14.5858 27.3828C14.9609 27.7579 15.4696 27.9686 16 27.9686C16.5304 27.9686 17.0391 27.7579 17.4142 27.3828C17.7893 27.0078 18 26.4991 18 25.9686C18 25.4382 17.7893 24.9295 17.4142 24.5544C17.0391 24.1793 16.5304 23.9686 16 23.9686C15.4696 23.9686 14.9609 24.1793 14.5858 24.5544C14.2107 24.9295 14 25.4382 14 25.9686Z" fill="black"/>
</svg>
