<?xml version="1.0" standalone="no"?>
<!DOCTYPE svg PUBLIC "-//W3C//DTD SVG 20010904//EN"
 "http://www.w3.org/TR/2001/REC-SVG-20010904/DTD/svg10.dtd">
<svg version="1.0" xmlns="http://www.w3.org/2000/svg"
 width="171.000000pt" height="171.000000pt" viewBox="0 0 171.000000 171.000000"
 preserveAspectRatio="xMidYMid meet">

<g transform="translate(0.000000,171.000000) scale(0.100000,-0.100000)"
fill="#000000" stroke="none">
<path d="M292 948 c-14 -17 -44 -136 -40 -157 3 -13 7 -11 21 10 10 15 19 36
22 47 2 11 8 30 14 41 13 24 14 71 2 71 -5 0 -13 -6 -19 -12z"/>
<path d="M524 946 c-4 -11 -10 -13 -18 -7 -12 10 -66 8 -85 -3 -6 -4 -18 -2
-26 4 -12 10 -17 7 -26 -16 -6 -16 -13 -42 -16 -58 l-6 -28 -13 23 c-13 22
-13 20 -8 -26 3 -27 7 -50 8 -51 0 -1 35 3 77 9 75 10 77 11 94 46 16 34 18
35 31 17 8 -11 15 -18 17 -15 1 2 9 16 17 31 7 16 15 26 17 24 3 -2 0 -13 -5
-23 -13 -26 -25 -82 -13 -64 8 12 14 12 40 1 18 -7 34 -10 37 -7 10 9 -6 27
-24 27 -11 0 -4 11 21 34 39 36 47 65 22 86 -21 17 -58 5 -100 -32 l-36 -31
12 27 c9 20 10 29 1 38 -8 8 -13 7 -18 -6z m126 -30 c0 -17 -48 -76 -61 -76
-6 0 -3 12 5 28 8 15 17 35 20 45 6 20 36 23 36 3z m-151 -38 c-5 -17 -12 -35
-16 -38 -15 -13 -123 -39 -123 -29 0 19 33 89 42 89 6 0 7 -8 3 -17 -4 -10
-10 -29 -12 -43 -5 -22 -4 -23 8 -9 8 9 26 19 42 23 35 8 36 25 1 18 -34 -6
-28 19 7 29 52 15 58 12 48 -23z"/>
<path d="M728 943 c-26 -10 -38 -21 -38 -35 0 -14 5 -18 15 -14 8 3 15 4 15 2
0 -2 -7 -23 -15 -46 -20 -56 -18 -63 5 -20 11 19 19 45 20 57 0 20 34 42 46
30 8 -7 -16 -60 -43 -96 -24 -31 -24 -32 -4 -22 57 31 103 140 65 155 -21 8
-23 8 -66 -11z"/>
<path d="M853 937 c-42 -29 -48 -55 -21 -84 l22 -23 -22 -30 -22 -30 23 9 c41
16 154 24 161 12 11 -17 42 -13 67 10 23 19 23 20 2 10 -30 -15 -53 -14 -53 3
0 20 50 77 61 71 4 -3 14 3 21 15 16 26 63 28 53 3 -14 -36 -34 -107 -31 -111
2 -1 19 27 37 65 25 49 41 69 58 73 14 3 27 12 29 19 4 11 -4 12 -39 6 -24 -5
-59 -9 -76 -9 -18 0 -33 -3 -33 -7 0 -5 -7 -6 -15 -2 -20 7 -52 -22 -75 -67
-14 -28 -27 -38 -62 -47 -41 -11 -45 -10 -70 15 -35 32 -35 46 -3 60 49 23 51
18 30 -58 -7 -22 -6 -23 6 -8 8 9 25 18 38 20 14 2 26 8 28 14 2 7 -6 10 -22
6 -20 -3 -24 -1 -19 11 3 9 23 18 45 22 43 8 52 15 39 34 -6 11 -17 12 -49 4
-32 -9 -43 -8 -52 3 -15 18 -17 17 -56 -9z"/>
<path d="M1280 946 c-6 -8 -21 -16 -33 -18 -29 -4 -56 -86 -39 -123 18 -39 66
-35 92 8 11 17 22 37 24 42 2 6 9 5 17 -3 11 -10 17 -6 32 20 10 18 16 25 13
15 -19 -60 -18 -62 19 -76 20 -7 39 -10 42 -8 8 9 -7 27 -23 27 -10 0 -2 13
20 34 37 34 45 63 24 84 -20 20 -43 14 -92 -23 l-46 -36 0 29 c0 18 -6 32 -16
36 -21 8 -20 8 -34 -8z m10 -85 c-6 -22 -18 -47 -27 -56 -42 -43 -33 62 10
112 21 24 22 24 25 5 2 -11 -2 -39 -8 -61z m170 61 c0 -11 -62 -84 -67 -78 -2
2 3 18 12 35 8 17 13 31 10 31 -4 0 -3 5 0 10 7 12 45 14 45 2z"/>
</g>
</svg>
